HIERARCHY
ROOT Hips
{
	OFFSET 0.00000 0.00000 0.00000
	CHANNELS 6 Xposition Yposition Zposition Zrotation Yrotation Xrotation 
	JOINT LHipJoint
	{
		OFFSET 0 0 0
		CHANNELS 3 Zrotation Yrotation Xrotation
		JOINT LeftHip
		{
			OFFSET 1.37590 -1.78394 0.89329
			CHANNELS 3 Zrotation Yrotation Xrotation
			JOINT LeftKnee
			{
				OFFSET 2.47928 -6.81178 0.00000
				CHANNELS 3 Zrotation Yrotation Xrotation
				JOINT LeftAnkle
				{
					OFFSET 2.63345 -7.23535 0.00000
					CHANNELS 3 Zrotation Yrotation Xrotation
					JOINT LeftToe
					{
						OFFSET 0.23938 -0.65768 2.27012
						CHANNELS 3 Zrotation Yrotation Xrotation
						End Site
						{
							OFFSET 0.00000 -0.00000 1.18363
						}
					}
				}
			}
		}
	}
	JOINT RHipJoint
	{
		OFFSET 0 0 0
		CHANNELS 3 Zrotation Yrotation Xrotation
		JOINT RightHip
		{
			OFFSET -1.33617 -1.78394 0.89329
			CHANNELS 3 Zrotation Yrotation Xrotation
			JOINT RightKnee
			{
				OFFSET -2.56922 -7.05888 0.00000
				CHANNELS 3 Zrotation Yrotation Xrotation
				JOINT RightAnkle
				{
					OFFSET -2.56568 -7.04915 0.00000
					CHANNELS 3 Zrotation Yrotation Xrotation
					JOINT RightToe
					{
						OFFSET -0.27533 -0.75646 2.18105
						CHANNELS 3 Zrotation Yrotation Xrotation
						End Site
						{
							OFFSET -0.00000 -0.00000 1.15233
						}
					}
				}
			}
		}
	}
	JOINT lowerback
	{
		OFFSET 0 0 0
		CHANNELS 3 Zrotation Yrotation Xrotation
		JOINT Chest
		{
			OFFSET 0.06190 2.15152 -0.00935
			CHANNELS 3 Zrotation Yrotation Xrotation
			JOINT Chest2
			{
				OFFSET 0.06334 2.15332 0.00872
				CHANNELS 3 Zrotation Yrotation Xrotation
				JOINT lowerneck
				{
					OFFSET 0 0 0
					CHANNELS 3 Zrotation Yrotation Xrotation
					JOINT Neck
					{
						OFFSET -0.04202 1.66908 0.23524
						CHANNELS 3 Zrotation Yrotation Xrotation
						JOINT Head
						{
							OFFSET 0.07510 1.69357 -0.24440
							CHANNELS 3 Zrotation Yrotation Xrotation
							End Site
							{
								OFFSET 0.02556 1.71719 -0.11000
							}
						}
					}
				}
				JOINT LeftCollar
				{
					OFFSET 0 0 0
					CHANNELS 3 Zrotation Yrotation Xrotation
					JOINT LeftShoulder
					{
						OFFSET 3.67168 1.26306 -0.41342
CHANNELS 3 Zrotation Xrotation Yrotation
						JOINT LeftElbow
						{
OFFSET 0 -4.685100 -0.000000
CHANNELS 3 Zrotation Xrotation Yrotation
							JOINT LeftWrist
							{
OFFSET 0 -3.396260 -0.000000
CHANNELS 3 Zrotation Xrotation Yrotation
								JOINT lhand
								{
									OFFSET 0 0 0
CHANNELS 3 Zrotation Xrotation Yrotation
									JOINT LFingers
									{
OFFSET 0 -0.486080 -0.000000
CHANNELS 3 Zrotation Xrotation Yrotation
										End Site
										{
OFFSET 0 -0.391890 -0.000000
										}
									}
								}
								JOINT LThumb
								{
OFFSET 0 0.000000 0.000000
CHANNELS 3 Zrotation Xrotation Yrotation
									End Site
									{
OFFSET 0 -0.397870 0.397870
									}
								}
							}
						}
					}
				}
				JOINT RightCollar
				{
					OFFSET 0 0 0
					CHANNELS 3 Zrotation Yrotation Xrotation
					JOINT RightShoulder
					{
						OFFSET -3.04136 1.42992 -0.76390
CHANNELS 3 Zrotation Xrotation Yrotation
						JOINT RightElbow
						{
OFFSET 0 -5.555760 -0.000000
CHANNELS 3 Zrotation Xrotation Yrotation
							JOINT RightWrist
							{
OFFSET 0 -3.327740 -0.000000
CHANNELS 3 Zrotation Xrotation Yrotation
								JOINT rhand
								{
									OFFSET 0 0 0
CHANNELS 3 Zrotation Xrotation Yrotation
									JOINT RFingers
									{
OFFSET 0 -0.507630 -0.000000
CHANNELS 3 Zrotation Xrotation Yrotation
										End Site
										{
OFFSET 0 -0.409260 -0.000000
										}
									}
								}
								JOINT RThumb
								{
OFFSET 0 0.000000 0.000000
CHANNELS 3 Zrotation Xrotation Yrotation
									End Site
									{
OFFSET 0 -0.415510 0.415510
									}
								}
							}
						}
					}
				}
			}
		}
	}
}
MOTION
Frames: 11
Frame Time: 0.008333333333333333
41.452200 17.856500 4.777700 -78.091000 -84.570400 87.025400 0.000000 0.000000 0.000000 -11.395200 -6.583000 -7.480200 0.335200 3.720700 10.292300 0.125000 4.247800 -9.588800 0.039700 1.285500 3.534600 0.000000 0.000000 0.000000 27.645700 5.313000 -8.871600 -0.577500 -4.866200 13.527400 0.094900 -10.310800 -13.062300 -0.637900 -5.110100 14.222800 4.719800 -0.096700 -4.274200 3.374100 -0.442600 -1.682100 0.801400 -0.265900 0.659500 -5.513600 -1.729300 -14.949600 5.458400 -1.862500 8.253600 2.443500 -0.720500 5.015300 0.000000 0.000000 0.000000 -7.018100 -1.535200 -0.413200 11.197300 -18.590000 1.838300 14.072100 42.075800 -17.180400 0.000000 0.000000 0.000000 -7.125000 0.000000 0.000000 -13.206200 47.216800 0.734700 0.000000 0.000000 0.000000 -5.125300 -3.727100 12.002900 -12.535500 -20.602800 -2.287200 -14.606300 24.266600 23.911900 0.000000 0.000000 0.000000 7.125000 0.000000 -0.000000 15.403500 53.932600 -3.445400
41.448572 17.854573 4.774347 -79.132475 -84.599708 88.118278 0.000000 0.000000 0.000000 -11.385885 -6.505176 -7.539434 0.335970 3.725034 10.304393 0.127758 4.243733 -9.645421 0.038667 1.268718 3.488523 0.000000 0.000000 0.000000 27.632331 5.314192 -9.034532 -0.594520 -4.936246 13.726837 0.075757 -10.118019 -13.109410 -0.627989 -5.070702 14.110333 4.681355 -0.079637 -4.285233 3.371608 -0.420724 -1.639947 0.821129 -0.253258 0.709847 -5.491862 -1.757876 -15.292610 5.336515 -1.879548 8.450967 2.400273 -0.731523 5.132065 0.000000 0.000000 0.000000 -6.976877 -1.695819 0.057389 11.102854 -18.445654 1.808308 14.042886 42.420065 -17.156970 0.000000 0.000000 0.000000 -7.125000 0.000000 0.000000 -13.225545 47.189644 0.726843 0.000000 0.000000 0.000000 -5.156807 -3.841439 11.777579 -12.498870 -20.548553 -2.274386 -12.845702 23.929651 26.216250 0.000000 0.000000 0.000000 7.125000 0.000000 0.000000 18.542909 55.773388 -5.177331
41.444884 17.852353 4.771419 -80.117515 -84.650311 89.162603 0.000000 0.000000 0.000000 -11.412075 -6.436291 -7.607019 0.337006 3.730775 10.320396 0.131247 4.221828 -9.700791 0.038938 1.273779 3.502487 0.000000 0.000000 0.000000 27.584601 5.291903 -9.235296 -0.614640 -5.017560 13.958585 0.054966 -9.909799 -13.166883 -0.622584 -5.049258 14.049085 4.745571 -0.070094 -4.980238 3.267361 -0.476704 -1.229117 0.671479 -0.261653 1.519308 -5.438682 -1.733846 -15.375731 5.377512 -1.849184 8.081188 2.405575 -0.712061 5.028314 0.000000 0.000000 0.000000 -6.783102 -2.367435 0.607418 10.979028 -18.256035 1.769389 14.105670 42.901217 -17.135184 0.000000 0.000000 0.000000 -7.125000 0.000000 0.000000 -13.160471 47.176315 0.718822 0.000000 0.000000 0.000000 -5.027122 -4.473024 11.568247 -12.424338 -20.437964 -2.248242 -12.499423 24.098807 26.995346 0.000000 0.000000 0.000000 7.125000 0.000000 0.000000 19.299883 56.461379 -5.645288
41.440750 17.849158 4.767961 -81.604130 -84.724434 90.716239 0.000000 0.000000 0.000000 -11.459086 -6.387991 -7.674855 0.338762 3.740375 10.347444 0.132770 4.264169 -9.772707 0.037669 1.253235 3.445847 0.000000 0.000000 0.000000 27.514586 5.328990 -9.431265 -0.633863 -5.094122 14.177146 0.039088 -9.725060 -13.175116 -0.621794 -5.046177 14.040380 4.838261 -0.049907 -5.875602 3.115720 -0.540094 -0.664773 0.455883 -0.264866 2.599671 -5.132024 -1.716389 -15.385470 5.071616 -1.832812 7.334462 2.258031 -0.717599 4.790027 0.000000 0.000000 0.000000 -6.518034 -3.350032 1.307422 10.815952 -18.005652 1.718585 14.196966 43.486433 -16.931279 0.000000 0.000000 0.000000 -7.125000 0.000000 0.000000 -13.010415 46.985911 0.648236 0.000000 0.000000 0.000000 -4.821384 -5.361822 11.326014 -12.329650 -20.297130 -2.215287 -14.747595 24.652163 23.630010 0.000000 0.000000 0.000000 7.125000 0.000000 0.000000 15.126055 53.683438 -3.288162
41.434538 17.847575 4.762507 -82.570101 -84.755849 91.696043 0.000000 0.000000 0.000000 -11.455090 -6.359685 -7.643958 0.337231 3.731644 10.322799 0.133681 4.290270 -9.817354 0.040705 1.300879 3.577079 0.000000 0.000000 0.000000 27.508254 5.344157 -9.527762 -0.650305 -5.158351 14.360767 0.022601 -9.586040 -13.263875 -0.605922 -4.982231 13.857959 4.981338 -0.076049 -7.136617 2.970677 -0.710646 0.110943 0.206368 -0.305701 4.111311 -5.255693 -1.623018 -15.497406 5.492469 -1.711607 6.707976 2.418456 -0.637325 4.612563 0.000000 0.000000 0.000000 -6.221375 -4.539200 1.843285 10.703279 -17.831879 1.684069 14.216058 43.790404 -17.004636 0.000000 0.000000 0.000000 -7.125000 0.000000 0.000000 -13.016328 47.061375 0.673153 0.000000 0.000000 0.000000 -4.600083 -6.554516 11.112410 -12.222168 -20.136717 -2.178321 -14.661248 24.809931 23.758799 0.000000 0.000000 0.000000 7.125000 0.000000 0.000000 15.277018 53.793087 -3.365381
41.429357 17.846335 4.755794 -82.721230 -84.793356 91.863058 0.000000 0.000000 0.000000 -11.474946 -6.332783 -7.662483 0.339230 3.742626 10.353558 0.135591 4.280919 -9.849332 0.033660 1.184404 3.256229 0.000000 0.000000 0.000000 27.492646 5.354070 -9.613975 -0.664211 -5.212089 14.514544 0.009042 -9.505992 -13.387393 -0.611048 -5.003332 13.918032 5.044515 -0.118023 -8.388346 2.858154 -0.899895 0.988991 0.031675 -0.354962 5.725956 -4.943692 -1.613738 -15.800893 5.158862 -1.695914 5.857679 2.261374 -0.644033 4.389965 0.000000 0.000000 0.000000 -5.969003 -5.959496 2.319523 10.586863 -17.652281 1.648497 14.109262 44.001956 -17.171128 0.000000 0.000000 0.000000 -7.125000 0.000000 0.000000 -13.168912 47.212605 0.731215 0.000000 0.000000 0.000000 -4.415724 -7.976351 10.890123 -12.103625 -19.959840 -2.137504 -14.676265 25.157372 24.258063 0.000000 0.000000 0.000000 7.125000 0.000000 0.000000 15.505902 54.282887 -3.603156
41.420923 17.843753 4.747335 -83.898968 -84.825791 93.070003 0.000000 0.000000 0.000000 -11.461106 -6.261884 -7.653605 0.337997 3.736115 10.335515 0.136319 4.315579 -9.898484 0.030013 1.118804 3.075750 0.000000 0.000000 0.000000 27.500588 5.447349 -9.680705 -0.679555 -5.271006 14.683110 -0.006598 -9.395529 -13.501416 -0.600229 -4.959471 13.792983 4.935638 -0.133720 -8.410777 2.900038 -0.916692 1.038064 0.134228 -0.365877 5.792038 -5.271689 -1.585113 -16.239856 5.541549 -1.621189 6.211464 2.441785 -0.584416 4.572385 0.000000 0.000000 0.000000 -5.986286 -6.042942 2.710888 10.556053 -17.604631 1.639117 14.102973 44.269065 -17.183278 0.000000 0.000000 0.000000 -7.125000 0.000000 0.000000 -13.178597 47.223788 0.735403 0.000000 0.000000 0.000000 -4.485146 -8.081046 10.817455 -12.085208 -19.932327 -2.131269 -14.629316 25.029242 23.813753 0.000000 0.000000 0.000000 7.125000 0.000000 0.000000 15.332756 53.841185 -3.394417
41.411846 17.841367 4.737422 -84.953738 -84.883590 94.151647 0.000000 0.000000 0.000000 -11.482322 -6.182448 -7.652261 0.338133 3.736943 10.337624 0.141640 4.299841 -9.994488 0.028480 1.088134 2.991451 0.000000 0.000000 0.000000 27.477223 5.439810 -9.765951 -0.694070 -5.325604 14.839577 -0.028095 -9.172238 -13.560431 -0.608031 -4.990917 13.882633 4.825732 -0.146551 -8.443849 2.899914 -0.932432 1.202273 0.194238 -0.371448 5.985235 -5.066412 -1.634409 -16.820784 5.138067 -1.665710 6.261790 2.277335 -0.620703 4.676077 0.000000 0.000000 0.000000 -5.926049 -6.414280 3.024751 10.494888 -17.509907 1.620648 14.175598 44.499624 -17.211841 0.000000 0.000000 0.000000 -7.125000 0.000000 0.000000 -13.120697 47.261974 0.744617 0.000000 0.000000 0.000000 -4.478131 -8.413724 10.709282 -12.083406 -19.929669 -2.130622 -14.504807 25.067121 24.373198 0.000000 0.000000 0.000000 7.125000 0.000000 0.000000 15.735731 54.362621 -3.689898
41.404688 17.839163 4.726639 -86.224841 -84.959163 95.447496 0.000000 0.000000 0.000000 -11.520180 -6.135875 -7.658765 0.339637 3.745124 10.360646 0.146425 4.293894 -10.090404 0.027576 1.070759 2.943434 0.000000 0.000000 0.000000 27.432447 5.496330 -9.862380 -0.713009 -5.396451 15.042779 -0.045323 -9.031520 -13.660235 -0.604861 -4.978293 13.846792 4.609049 -0.167472 -8.473398 2.956596 -0.941524 1.165371 0.373157 -0.385148 5.966408 -5.288046 -1.575885 -16.766941 5.356918 -1.568453 6.415205 2.391456 -0.563820 4.714388 0.000000 0.000000 0.000000 -5.959790 -6.230185 3.110065 10.529735 -17.563921 1.631199 14.111357 44.282711 -17.216307 0.000000 0.000000 0.000000 -7.125000 0.000000 0.000000 -13.181616 47.257793 0.746785 0.000000 0.000000 0.000000 -4.561919 -8.272995 10.699402 -12.112560 -19.973247 -2.140574 -14.503448 24.863347 23.901980 0.000000 0.000000 0.000000 7.125000 0.000000 0.000000 15.502217 53.903738 -3.458215
41.396692 17.836322 4.717086 -87.679547 -84.991725 96.910538 0.000000 0.000000 0.000000 -11.530939 -6.082567 -7.644797 0.341717 3.756326 10.392112 0.146398 4.382420 -10.171324 0.026334 1.045294 2.873553 0.000000 0.000000 0.000000 27.425969 5.469349 -9.950824 -0.729326 -5.456511 15.215263 -0.066610 -8.805988 -13.718142 -0.606085 -4.983142 13.860499 4.520119 -0.167134 -8.447991 2.970241 -0.930058 1.152273 0.438788 -0.383334 5.939827 -5.049825 -1.609130 -16.546517 4.869124 -1.615299 6.211797 2.194711 -0.615777 4.611266 0.000000 0.000000 0.000000 -5.917678 -6.192806 3.363927 10.480279 -17.487280 1.616282 14.281432 44.560228 -17.184370 0.000000 0.000000 0.000000 -7.125000 0.000000 0.000000 -13.013861 47.248950 0.734117 0.000000 0.000000 0.000000 -4.562776 -8.180951 10.679600 -12.136266 -20.008727 -2.148653 -14.623113 24.988223 24.295124 0.000000 0.000000 0.000000 7.125000 0.000000 0.000000 15.577530 54.309009 -3.630413
41.387802 17.831957 4.707974 -89.924714 -85.010080 99.206399 0.000000 0.000000 0.000000 -11.534206 -6.060534 -7.682956 0.346354 3.781334 10.462419 0.147704 4.510489 -10.318463 0.023705 0.992765 2.728862 0.000000 0.000000 0.000000 27.423924 5.487546 -10.089540 -0.746954 -5.520475 15.399134 -0.086709 -8.556322 -13.729737 -0.606038 -4.983025 13.860134 4.380966 -0.144962 -8.165374 3.044439 -0.862275 0.910539 0.602110 -0.363325 5.532292 -5.355103 -1.580095 -16.565413 5.171042 -1.551506 6.667140 2.346230 -0.570631 4.758414 0.000000 0.000000 0.000000 -5.977062 -5.802661 3.556165 10.476840 -17.481896 1.615326 14.141026 44.588669 -17.248003 0.000000 0.000000 0.000000 -7.125000 0.000000 0.000000 -13.164572 47.293341 0.757546 0.000000 0.000000 0.000000 -4.667053 -7.700693 10.751664 -12.223955 -20.139492 -2.178854 -14.552617 24.683728 24.116714 0.000000 0.000000 0.000000 7.125000 0.000000 0.000000 15.558432 54.122188 -3.554167
